<svg width="30" height="65" viewBox="0 0 30 65" fill="none" xmlns="http://www.w3.org/2000/svg">
<path d="M7.58154 1.68289H22.2196" stroke="#022E71" stroke-width="0.975905" stroke-linecap="round" stroke-linejoin="round"/>
<path d="M3.10728 61.0463C1.66695 60.1504 0.743108 59.238 0.488037 57.4906V21.3821C0.928384 16.8898 5.96763 15.3746 9.71501 14.7109C14.9433 13.7833 27.3898 14.1031 29.1626 20.4062C29.325 33.1268 29.6385 46.0491 29.0027 58.7329C28.4926 59.8039 27.6893 60.4156 26.7134 61.0247" stroke="#022E71" stroke-width="0.975905" stroke-linecap="round" stroke-linejoin="round"/>
<path d="M4.76827 15.7043L4.67436 1.59931C4.44974 0.495268 6.87102 0.161509 7.14132 0.892459L7.23522 14.8186" stroke="#022E71" stroke-width="0.975905" stroke-linecap="round" stroke-linejoin="round"/>
<path d="M25.0493 15.7006L25.1584 2.03845C25.416 0.56767 23.5633 0.052443 22.6737 0.887452L22.5811 14.9024" stroke="#022E71" stroke-width="0.975905" stroke-linecap="round" stroke-linejoin="round"/>
<path d="M7.58154 7.62018L12.6386 7.71662" stroke="#022E71" stroke-width="0.975905" stroke-linecap="round" stroke-linejoin="round"/>
<path d="M22.2164 7.62018L17.1594 7.71662" stroke="#022E71" stroke-width="0.975905" stroke-linecap="round" stroke-linejoin="round"/>
<path d="M7.58154 12.0642L22.2196 11.9716" stroke="#022E71" stroke-width="0.975905" stroke-linecap="round" stroke-linejoin="round"/>
<path d="M13.975 11.7097C14.0511 11.3785 13.791 10.376 14.1615 10.2529C15.4699 10.3747 16.0549 9.942 15.8417 11.6209" stroke="#022E71" stroke-width="0.975905" stroke-linecap="round" stroke-linejoin="round"/>
<path d="M0.925537 38.0566H28.8717" stroke="#022E71" stroke-width="0.975905" stroke-linecap="round" stroke-linejoin="round"/>
<path d="M0.847412 44.7126H28.9712" stroke="#022E71" stroke-width="0.975905" stroke-linecap="round" stroke-linejoin="round"/>
<path d="M26.7179 61.0245L3.11304 61.0461" stroke="#022E71" stroke-width="0.975905" stroke-linecap="round" stroke-linejoin="round"/>
<path d="M3.11304 61.0461L3.17268 64.4876L26.6506 64.4572L26.7179 61.0245" stroke="#022E71" stroke-width="0.975905" stroke-linecap="round" stroke-linejoin="round"/>
<path d="M15.6083 10.2338C17.8824 9.39881 17.2733 6.00421 14.8418 6.0664C12.4472 6.12858 11.9878 9.45719 14.1997 10.2376" stroke="#022E71" stroke-width="0.975905" stroke-linecap="round" stroke-linejoin="round"/>
<path d="M21.4248 8.3389V11.3553" stroke="#022E71" stroke-width="0.975905" stroke-linecap="round" stroke-linejoin="round"/>
</svg>
