<svg width="64" height="64" viewBox="0 0 64 64" fill="none" xmlns="http://www.w3.org/2000/svg">
<path d="M26.6667 20.6681C26.6674 20.3129 26.7627 19.9643 26.9427 19.6581C27.1228 19.3518 27.3812 19.0991 27.6913 18.9259C28.0014 18.7526 28.3521 18.6651 28.7072 18.6723C29.0624 18.6795 29.4092 18.7811 29.7121 18.9668L39.4827 24.9641C39.7739 25.1431 40.0144 25.3937 40.1813 25.692C40.3481 25.9903 40.4357 26.3264 40.4357 26.6681C40.4357 27.0099 40.3481 27.346 40.1813 27.6443C40.0144 27.9426 39.7739 28.1932 39.4827 28.3721L29.7121 34.3721C29.4089 34.558 29.0615 34.6597 28.7059 34.6667C28.3503 34.6736 27.9993 34.5856 27.689 34.4118C27.3787 34.2379 27.1204 33.9844 26.9407 33.6774C26.761 33.3705 26.6665 33.0211 26.6667 32.6655V20.6681Z" stroke="#022E71" stroke-width="1.33333" stroke-linecap="round" stroke-linejoin="round"/>
<path d="M18.6667 56H45.3334" stroke="#022E71" stroke-width="1.33333" stroke-linecap="round" stroke-linejoin="round"/>
<path d="M53.3333 8H10.6666C7.72107 8 5.33325 10.3878 5.33325 13.3333V40C5.33325 42.9455 7.72107 45.3333 10.6666 45.3333H53.3333C56.2788 45.3333 58.6666 42.9455 58.6666 40V13.3333C58.6666 10.3878 56.2788 8 53.3333 8Z" stroke="#022E71" stroke-width="1.33333" stroke-linecap="round" stroke-linejoin="round"/>
</svg>
