<svg width="20" height="20" viewBox="0 0 20 20" fill="none" xmlns="http://www.w3.org/2000/svg">
<path fill-rule="evenodd" clip-rule="evenodd" d="M8.46964 2.29492H11.5304C12.898 2.29491 13.9813 2.2949 14.829 2.40888C15.7015 2.52619 16.4077 2.77334 16.9647 3.33027C17.4693 3.83488 17.7202 4.46283 17.85 5.22785C17.9447 5.78633 17.9793 6.44716 17.9922 7.22469C17.9973 7.25509 18 7.28632 18 7.31818C18 7.34445 17.9982 7.3703 17.9947 7.3956C17.9973 7.60874 17.9986 7.83036 17.9993 8.06073C18.0002 8.36898 17.751 8.6196 17.4428 8.6205C17.1346 8.6214 16.8839 8.37225 16.883 8.064C16.8828 8.00048 16.8826 7.93792 16.8823 7.87632H3.11776C3.11634 8.16535 3.11628 8.47472 3.11628 8.80655C3.11628 10.2256 3.11746 11.2337 3.22029 11.9985C3.32095 12.7472 3.50973 13.1786 3.82467 13.4935C4.13962 13.8085 4.57098 13.9972 5.3197 14.0979C6.08447 14.2007 7.0926 14.2019 8.51163 14.2019H9.62791C9.93616 14.2019 10.186 14.4518 10.186 14.76C10.186 15.0683 9.93616 15.3182 9.62791 15.3182H8.46965C7.10201 15.3182 6.01875 15.3182 5.17096 15.2042C4.29846 15.0869 3.59227 14.8398 3.03534 14.2828C2.47842 13.7259 2.23127 13.0197 2.11396 12.1472C1.99998 11.2994 1.99999 10.2162 2 8.84853V8.76456C2 8.27209 1.99999 7.81649 2.00531 7.39548C2.00181 7.37022 2 7.34441 2 7.31818C2 7.2863 2.00267 7.25505 2.00781 7.22463C2.01908 6.54951 2.04664 5.96662 2.11396 5.46588C2.23127 4.59338 2.47842 3.88719 3.03534 3.33027C3.59227 2.77334 4.29846 2.52619 5.17096 2.40888C6.01875 2.2949 7.10201 2.29491 8.46964 2.29492ZM3.13568 6.76004H16.8642C16.8465 6.22809 16.8128 5.78798 16.7494 5.41458C16.6431 4.78807 16.4618 4.40612 16.1753 4.11959C15.8604 3.80465 15.429 3.61587 14.6803 3.51521C13.9155 3.41239 12.9074 3.4112 11.4884 3.4112H8.51163C7.0926 3.4112 6.08447 3.41239 5.3197 3.51521C4.57098 3.61587 4.13962 3.80465 3.82467 4.11959C3.50973 4.43454 3.32095 4.86591 3.22029 5.61462C3.17571 5.94615 3.15024 6.3234 3.13568 6.76004ZM12.6047 9.73678C12.9129 9.73678 13.1628 9.98667 13.1628 10.2949V13.4126L13.6984 12.877C13.9163 12.659 14.2697 12.659 14.4877 12.877C14.7057 13.095 14.7057 13.4484 14.4877 13.6663L12.9993 15.1547C12.7813 15.3727 12.428 15.3727 12.21 15.1547L10.7216 13.6663C10.5036 13.4484 10.5036 13.095 10.7216 12.877C10.9396 12.659 11.293 12.659 11.5109 12.877L12.0465 13.4126V10.2949C12.0465 9.98667 12.2964 9.73678 12.6047 9.73678ZM15.5588 9.90026C15.7768 9.68229 16.1302 9.68229 16.3482 9.90026L17.8365 11.3886C18.0545 11.6066 18.0545 11.96 17.8365 12.178C17.6186 12.3959 17.2652 12.3959 17.0472 12.178L16.5116 11.6424V14.76C16.5116 15.0683 16.2617 15.3182 15.9535 15.3182C15.6452 15.3182 15.3953 15.0683 15.3953 14.76V11.6424L14.8598 12.178C14.6418 12.3959 14.2884 12.3959 14.0705 12.178C13.8525 11.96 13.8525 11.6066 14.0705 11.3886L15.5588 9.90026ZM4.97674 11.7833C4.97674 11.475 5.22663 11.2252 5.53488 11.2252H8.51163C8.81988 11.2252 9.06977 11.475 9.06977 11.7833C9.06977 12.0915 8.81988 12.3414 8.51163 12.3414H5.53488C5.22663 12.3414 4.97674 12.0915 4.97674 11.7833Z" fill="#242424"/>
</svg>
